<?xml version="1.0" encoding="iso-8859-1"?>
<!-- Generator: Adobe Illustrator 18.1.1, SVG Export Plug-In . SVG Version: 6.00 Build 0)  -->
<svg version="1.1" id="Capa_1" xmlns="http://www.w3.org/2000/svg" xmlns:xlink="http://www.w3.org/1999/xlink" x="0px" y="0px"
	 viewBox="0 0 288.749 288.749" style="enable-background:new 0 0 288.749 288.749;" xml:space="preserve">
<g>
	<g>
		<path style="fill:#010002;" d="M205.833,68.891l-87.025,52.574c-0.049,0.033-0.087,0.076-0.136,0.109
			c-0.68,0.435-1.338,0.925-1.931,1.517c-0.005,0-0.011,0.011-0.016,0.011c-0.06,0.065-0.103,0.136-0.158,0.201
			c-0.528,0.555-0.979,1.148-1.365,1.773c-0.038,0.054-0.098,0.109-0.131,0.169l-47.14,79.769
			c-2.448,4.134-1.887,9.393,1.376,12.918c2.11,2.284,5.026,3.497,7.99,3.497c1.621,0,3.258-0.359,4.781-1.115l81.069-39.711
			c0.087,0,0.174,0.033,0.261,0.033c2.785,0,5.57-1.061,7.691-3.187c0.555-0.566,1.028-1.169,1.441-1.795
			c1.338-1.001,2.513-2.176,3.28-3.677l45.324-88.831c2.208-4.335,1.278-9.605-2.279-12.907
			C215.308,66.922,209.989,66.384,205.833,68.891z M126.657,148.383l17.362,17.367l-38.873,19.037L126.657,148.383z
			 M161.402,152.365l-19.461-19.461l42.485-25.667L161.402,152.365z"/>
		<path style="fill:#010002;" d="M144.372,0C64.766,0,0.003,64.768,0.003,144.369c0,79.612,64.763,144.38,144.369,144.38
			s144.375-64.768,144.375-144.38C288.746,64.768,223.978,0,144.372,0z M144.372,266.987c-67.608,0-122.613-55.005-122.613-122.624
			c0-67.608,55.005-122.613,122.613-122.613c67.613,0,122.618,55.005,122.618,122.613
			C266.99,211.982,211.985,266.987,144.372,266.987z"/>
	</g>
</g>
<g>
</g>
<g>
</g>
<g>
</g>
<g>
</g>
<g>
</g>
<g>
</g>
<g>
</g>
<g>
</g>
<g>
</g>
<g>
</g>
<g>
</g>
<g>
</g>
<g>
</g>
<g>
</g>
<g>
</g>
</svg>
